<svg width="603" height="609" viewBox="0 0 603 609" fill="none" xmlns="http://www.w3.org/2000/svg">
<path d="M158.333 358.666L158.333 25.3329ZM158.333 358.666L25 358.667L25 25.3329L158.333 25.3329M158.333 358.666L331.52 560.717C347.953 579.89 373.807 588.132 398.307 582.007L399.89 581.611C444.617 570.429 464.763 518.314 439.193 479.955L358.333 358.667L510.347 358.667C552.417 358.667 583.97 320.18 575.72 278.926L535.72 78.9263C529.487 47.7629 502.127 25.3329 470.347 25.3329L158.333 25.3329" fill="white"/>
<path d="M158.333 358.666L158.333 25.3329M158.333 358.666L25 358.667L25 25.3329L158.333 25.3329M158.333 358.666L331.52 560.717C347.953 579.89 373.807 588.132 398.307 582.007L399.89 581.611C444.617 570.429 464.763 518.314 439.193 479.955L358.333 358.667L510.347 358.667C552.417 358.667 583.97 320.18 575.72 278.926L535.72 78.9263C529.487 47.7629 502.127 25.3329 470.347 25.3329L158.333 25.3329" stroke="black" stroke-width="50" stroke-linecap="round" stroke-linejoin="round"/>
</svg>
