<svg width="603" height="609" viewBox="0 0 603 609" fill="none" xmlns="http://www.w3.org/2000/svg">
<path d="M158.333 250.334L158.333 583.667ZM158.333 250.334L25 250.333L24.9999 583.667L158.333 583.667M158.333 250.334L331.52 48.2827C347.953 29.1104 373.807 20.8684 398.307 26.9927L399.89 27.3891C444.617 38.5707 464.763 90.6861 439.193 129.045L358.333 250.333L510.347 250.333C552.417 250.333 583.97 288.82 575.72 330.074L535.72 530.074C529.487 561.237 502.127 583.667 470.347 583.667L158.333 583.667" fill="white"/>
<path d="M158.333 250.334L158.333 583.667M158.333 250.334L25 250.333L24.9999 583.667L158.333 583.667M158.333 250.334L331.52 48.2827C347.953 29.1104 373.807 20.8684 398.307 26.9927L399.89 27.3891C444.617 38.5707 464.763 90.6861 439.193 129.045L358.333 250.333L510.347 250.333C552.417 250.333 583.97 288.82 575.72 330.074L535.72 530.074C529.487 561.237 502.127 583.667 470.347 583.667L158.333 583.667" stroke="black" stroke-width="50" stroke-linecap="round" stroke-linejoin="round"/>
</svg>
