<svg width="35" height="48" viewBox="0 0 35 48" fill="none" xmlns="http://www.w3.org/2000/svg">
<path d="M12.7155 25L15.8966 26.7836L6.49114 43.5586L2.20129 46.8575L3.30998 41.775L12.7155 25Z" fill="#D9D9D9"/>
<path d="M20.0001 6.50001L26.4991 10.5016L23.4037 25.1629L8.89817 17.2539L20.0001 6.50001Z" fill="#FF737C"/>
<rect x="26.1037" y="10.3631" width="2.32547" height="14.9335" transform="rotate(12.5218 26.1037 10.3631)" fill="#FA4753"/>
<path d="M4.98454 14.8806L28.785 28.1284L28.5 31.5L26.1735 32.8201L2.37303 19.5723L2.99997 16.5L4.98454 14.8806Z" fill="#FA4753"/>
<path d="M20.0861 0.264167L33.7451 7.86702L32.9423 10.9504L31.1336 12.5587L17.4746 4.9559L18.4539 2.07971L20.0861 0.264167Z" fill="#FA4753"/>
<path d="M29.7102 32.0822C28.8785 33.2592 27.7764 33.8517 26.3536 33.8039C25.794 33.7851 25.2891 33.5713 24.812 33.2982C22.1937 31.7996 19.5795 30.2941 16.9609 28.7962C16.4068 28.4792 16.4114 28.4953 16.0872 29.0567C14.2356 32.2622 13.3808 33.4659 11.5229 36.6678C10.3636 38.6658 9.22834 40.6787 8.02356 42.6492C7.09202 44.1728 5.88689 45.4894 4.61802 46.7435C4.34286 47.0155 4.06735 47.2889 3.77289 47.5393C3.21145 48.0167 2.47202 48.0789 1.84737 47.7231C1.25413 47.3853 0.876313 46.692 1.03719 46.0058C1.64062 43.432 2.43203 40.9359 3.79516 38.6287C6.48128 34.0825 8.09482 31.4935 10.7389 26.9225C10.9257 26.5996 11.1047 26.2713 11.3094 25.9598C11.4784 25.7026 11.4075 25.5475 11.1605 25.4073C10.0986 24.8044 9.03498 24.2041 7.98191 23.5861C6.24763 22.5682 4.48563 21.5982 2.77315 20.5422C1.37903 19.6825 0.970708 17.6105 1.56078 16.2526C2.37706 14.3743 4.66196 13.6304 6.55216 14.6241C7.0862 14.9048 7.61224 15.2015 8.13307 15.506C8.37306 15.6463 8.54249 15.6034 8.743 15.4208C11.2481 13.1405 13.7661 10.8742 16.2656 8.5878C16.8905 8.01615 17.506 7.43509 18.1567 6.89241C18.265 6.80214 18.3973 6.72778 18.4157 6.51933C17.8751 6.07717 17.4266 5.53843 17.1339 4.86152C16.4813 3.35276 17.0182 1.89933 18.1662 0.808948C19.1597 -0.134609 20.7972 -0.248381 22.0294 0.444771C25.6607 2.48755 29.2692 4.56953 32.8525 6.69493C34.746 7.81803 35.2199 10.062 33.9458 11.85C33.0951 13.0439 31.3912 13.5605 29.9304 13.0693C29.7968 13.0244 29.6744 12.9335 29.4926 12.9626C29.1897 13.5337 29.1853 14.1935 29.0453 14.8145C28.2601 18.296 27.4993 21.7831 26.7306 25.2683C26.6935 25.4363 26.6586 25.6049 26.6239 25.7735C26.571 26.031 26.6595 26.2024 26.8981 26.3368C27.4362 26.6398 27.9752 26.9455 28.4863 27.2908C30.1358 28.4056 30.622 30.3052 29.7102 32.0822ZM25.9593 10.8091C24.1175 9.74716 22.2733 8.68922 20.4364 7.61885C20.1598 7.45766 19.9545 7.45092 19.7085 7.67946C18.6361 8.67566 17.5518 9.65912 16.4687 10.6439C14.6208 12.3242 12.7675 13.9987 10.9242 15.6841C10.6238 15.9588 10.2901 16.2109 10.0408 16.6134C10.5928 16.9538 11.1227 17.265 11.6359 17.6016C12.0841 17.8956 12.1566 18.2451 11.9054 18.7125C11.6934 19.1069 11.3546 19.2097 10.8721 18.9749C10.4078 18.749 9.96163 18.4853 9.51108 18.2318C8.24678 17.5206 7.03045 16.7251 5.72536 16.0855C5.20713 15.8316 4.65953 15.8286 4.12873 15.9883C3.43533 16.197 3.08618 16.7402 2.98898 17.4229C2.88878 18.1266 3.12378 18.7328 3.71245 19.1578C4.68116 19.8571 5.74511 20.4021 6.77697 20.9986C9.96067 22.839 13.1445 24.6792 16.3308 26.5152C19.1428 28.1354 21.9572 29.7515 24.7729 31.3653C25.2214 31.6223 25.6774 31.8682 26.1764 32.0203C27.323 32.3699 28.477 31.5383 28.4837 30.3482C28.4884 29.5148 28.0409 28.9375 27.3577 28.5386C25.2734 27.3217 23.1777 26.1243 21.0892 24.9146C18.8264 23.604 16.5617 22.2966 14.3087 20.9694C13.601 20.5526 13.4855 20.2297 13.759 19.7454C14.0402 19.2476 14.4116 19.1895 15.1343 19.5994C17.0707 20.6976 18.9985 21.8111 20.9268 22.9235C22.146 23.6269 23.358 24.3424 24.5771 25.0459C24.9545 25.2636 25.0592 25.2113 25.181 24.7863C25.2047 24.7036 25.2287 24.6204 25.2442 24.536C25.5496 22.872 25.9511 21.2288 26.3194 19.5784C26.8499 17.2013 27.3642 14.8206 27.9047 12.4458C27.9753 12.1356 27.9043 11.95 27.6495 11.8006C27.1042 11.4808 26.5596 11.1599 25.9593 10.8091ZM18.6787 4.19435C18.8635 4.81275 19.3667 5.13214 19.876 5.43062C22.0435 6.7009 24.174 8.03439 26.3825 9.23461C27.7433 9.97411 29.042 10.8296 30.4668 11.4486C31.6087 11.9448 32.921 11.0966 32.9842 9.85705C33.0361 8.83981 32.4111 8.29334 31.6277 7.8436C28.9872 6.32786 26.3509 4.8049 23.7054 3.29792C22.8457 2.8082 22.042 2.21696 21.1126 1.85191C20.3372 1.54735 19.6293 1.67801 19.0478 2.26204C18.5273 2.78479 18.4217 3.43119 18.6787 4.19435ZM9.10449 37.4394C10.5879 34.8843 11.0713 34.3294 12.5546 31.7742C13.2962 30.4965 14.0312 29.2148 14.7838 27.9436C14.9418 27.6768 14.8889 27.5463 14.6277 27.4088C14.1705 27.1681 13.7254 26.9036 13.2829 26.6364C13.0461 26.4935 12.9093 26.535 12.7695 26.781C12.2312 27.7286 11.6693 28.6628 11.1234 29.6062C9.16954 32.9828 8.21385 34.3584 6.26924 37.7404C5.60467 38.8961 4.94781 40.0557 4.33682 41.2427C3.62548 42.6246 3.37912 44.1518 2.86455 45.5934C2.83254 45.6831 2.80463 45.7911 2.92428 45.8685C3.12948 45.8652 3.25602 45.7102 3.37282 45.5778C4.2546 44.5781 5.25808 43.6844 6.03167 42.5913C7.17779 40.9719 8.064 39.1962 9.10449 37.4394Z" fill="black"/>
</svg>
