<svg width="627" height="611" viewBox="0 0 627 611" fill="none" xmlns="http://www.w3.org/2000/svg">
<path fill-rule="evenodd" clip-rule="evenodd" d="M81.7678 366.838C54.0929 338.579 35.322 302.819 27.7838 263.99C20.1831 225.053 24.0862 184.746 39.0158 147.99C53.818 111.441 79.089 80.0802 111.656 57.846C177.731 12.718 264.717 12.718 330.79 57.846C363.36 80.0802 388.631 111.441 403.431 147.99C418.362 184.746 422.266 225.053 414.663 263.99C407.127 302.819 388.355 338.579 360.678 366.838C324.029 404.448 273.741 425.661 221.223 425.661C168.707 425.661 118.419 404.448 81.7678 366.838Z" stroke="black" stroke-width="48" stroke-linecap="round" stroke-linejoin="round"/>
<path d="M226.231 142.003L221.224 94.7696C208.31 96.2727 198.986 107.901 200.357 120.862L226.231 142.003ZM226.231 142.003C213.288 143.239 201.733 133.823 200.358 120.862L226.231 142.003ZM221.721 94.7159C265.579 90.178 307.278 114.744 324.565 155.303L280.824 173.821C271.691 152.523 249.784 139.617 226.728 141.952L221.721 94.7159ZM281.02 174.28L324.759 155.764C329.705 167.789 324.054 181.581 312.053 186.662C300.049 191.744 286.213 186.202 281.02 174.28ZM338.357 389.99L389.01 337.35L621.564 553.287L570.911 605.926L338.357 389.99ZM571.273 606.271L621.922 553.636C624.099 555.912 625.263 559.095 625.631 562.766C626.01 566.534 625.547 570.798 624.497 575.073C622.397 583.629 617.964 592.173 613.323 596.823C608.676 601.478 600.418 606.12 592.149 608.428C588.017 609.582 583.897 610.148 580.235 609.849C576.667 609.557 573.55 608.445 571.273 606.271ZM388.648 337.005L337.999 389.641C335.823 387.367 334.671 384.217 334.32 380.597C333.959 376.879 334.445 372.682 335.517 368.474C337.662 360.052 342.141 351.64 346.785 346.989L346.608 346.813L346.785 346.989C351.432 342.332 359.647 337.557 367.869 335.116C371.978 333.896 376.076 333.264 379.719 333.513C383.27 333.756 386.373 334.835 388.648 337.005Z" fill="black" stroke="black" stroke-width="0.5"/>
</svg>
