<svg width="316" height="324" viewBox="0 0 316 324" fill="none" xmlns="http://www.w3.org/2000/svg">
<path d="M280.416 14.1786L10.7347 36.6743L13.9215 78.9153L283.603 56.4196L280.416 14.1786Z" fill="#FAF6D4" stroke="black"/>
<path d="M298.951 258.034C298.951 258.034 254.336 269.561 242.453 272.792C236.408 274.435 209.621 283.781 180.516 289.869C177.623 290.474 121.839 298.403 121.839 298.403L31.2387 305.954L13.8304 75.4185L283.436 52.9966L298.951 258.034Z" fill="#F8FEB8" stroke="black"/>
<path d="M253.848 282.538C298.518 270.369 299.257 257.433 299.257 257.433C299.257 257.433 293.939 257.563 283.288 252.179C272.637 246.795 266.394 237.421 266.394 237.421C266.394 237.421 255.126 263.671 207.701 279.528C168.949 292.486 138.728 296.54 128.97 297.589C127.855 297.696 126.741 297.803 125.627 297.909L31.7299 306.05C52.8795 304.496 88.7082 301.425 125.627 297.909C125.627 297.909 126.786 297.824 128.97 297.589C184.1 292.308 240.743 286.108 253.848 282.538Z" fill="#B0AE72" stroke="black"/>
<rect x="-0.152277" y="0.709065" width="2.55988" height="16.1319" transform="matrix(-0.826525 0.568949 0.52197 0.849182 50.3111 35.6484)" fill="#D9D9D9" stroke="black"/>
<path d="M54.4781 30.9496L43.1006 17.8074L34.9773 23.3992L41.718 39.7332L54.4781 30.9496Z" fill="#FA4753" stroke="black"/>
<path d="M61.6806 27.3233C62.5052 28.1339 62.6224 29.4697 61.8886 30.3708C61.0029 31.4586 39.8562 46.1734 38.8566 46.2919C37.857 46.4103 37.0279 46.0839 36.5405 45.1921C36.053 44.3004 36.2704 42.8858 37.0727 42.3312C37.8749 41.7766 58.3379 27.5751 59.2583 26.9952C60.1787 26.4153 60.9799 26.6344 61.6806 27.3233Z" fill="#FA4753" stroke="black"/>
<path d="M45.2321 12.3207C46.2781 13.3327 46.4024 14.6698 45.4693 15.7974C44.343 17.1586 32.439 25.1749 31.8653 25.2181C31.2916 25.2613 30.2478 25.311 29.4916 24.2321C28.6373 23.0133 28.7132 21.5816 29.2473 20.9589C29.2473 20.9589 41.1545 12.6836 42.3242 11.9573C43.4939 11.2311 44.3431 11.4606 45.2321 12.3207Z" fill="#FA4753" stroke="black"/>
<path d="M36.0414 130.216L34.5727 112.823L45.0695 111.937L45.2272 113.805L36.8366 114.514L37.3329 120.391L45.18 119.728L45.3377 121.596L37.4907 122.259L37.9898 128.17L46.5162 127.45L46.674 129.318L36.0414 130.216ZM59.6276 115.087L55.9054 128.539L53.8672 128.711L47.9419 116.074L50.116 115.89L54.5946 125.981L54.7305 125.969L57.4535 115.27L59.6276 115.087ZM71.0857 127.257L68.8777 127.443L73.7954 109.511L75.9695 109.328L83.8245 126.181L81.6164 126.368L75.1827 112.165L75.0468 112.177L71.0857 127.257ZM71.3273 120.394L80.2274 119.642L80.3852 121.511L71.4851 122.262L71.3273 120.394ZM86.2618 125.975L85.1603 112.931L87.0966 112.767L87.263 114.738L87.3989 114.726C87.5822 114.061 87.9682 113.501 88.5571 113.046C89.1459 112.591 89.831 112.331 90.6123 112.265C90.7595 112.253 90.9437 112.24 91.165 112.227C91.3863 112.214 91.554 112.208 91.6682 112.21L91.8403 114.248C91.771 114.237 91.6131 114.225 91.3668 114.211C91.1257 114.192 90.872 114.193 90.6059 114.216C89.9718 114.269 89.4169 114.45 88.9411 114.758C88.4706 115.06 88.1105 115.456 87.861 115.944C87.6166 116.427 87.5193 116.963 87.569 117.551L88.266 125.806L86.2618 125.975ZM96.6266 120.31L96.3832 117.833L96.7909 117.799L102.007 111.508L104.487 111.299L98.9257 117.961L98.7559 117.975L96.6266 120.31ZM95.1598 125.224L93.6912 107.831L95.6954 107.662L97.1641 125.055L95.1598 125.224ZM103.449 124.524L97.808 118.5L99.1171 116.987L105.996 124.309L103.449 124.524ZM112.033 124.107C111.206 124.177 110.443 124.085 109.743 123.83C109.042 123.57 108.469 123.159 108.022 122.598C107.575 122.032 107.316 121.324 107.244 120.474C107.181 119.727 107.277 119.109 107.532 118.62C107.787 118.125 108.149 117.724 108.619 117.416C109.09 117.108 109.616 116.864 110.2 116.684C110.789 116.497 111.382 116.339 111.982 116.208C112.766 116.04 113.402 115.909 113.89 115.816C114.383 115.718 114.738 115.594 114.953 115.444C115.174 115.294 115.271 115.058 115.244 114.735L115.238 114.668C115.168 113.83 114.883 113.198 114.386 112.772C113.893 112.346 113.186 112.172 112.263 112.25C111.306 112.331 110.574 112.604 110.066 113.069C109.558 113.534 109.213 114.013 109.032 114.507L107.073 113.989C107.346 113.167 107.746 112.512 108.275 112.022C108.809 111.527 109.406 111.163 110.065 110.931C110.729 110.692 111.389 110.545 112.046 110.49C112.465 110.454 112.951 110.464 113.503 110.52C114.06 110.57 114.606 110.727 115.142 110.989C115.683 111.252 116.149 111.677 116.541 112.265C116.933 112.854 117.172 113.666 117.26 114.702L117.986 123.297L115.981 123.466L115.832 121.699L115.73 121.708C115.618 122.003 115.417 122.325 115.128 122.674C114.838 123.024 114.439 123.334 113.932 123.605C113.424 123.876 112.791 124.043 112.033 124.107ZM112.186 122.281C112.979 122.214 113.634 122.002 114.151 121.645C114.674 121.287 115.053 120.85 115.289 120.334C115.531 119.817 115.629 119.287 115.583 118.744L115.428 116.91C115.351 117.019 115.172 117.128 114.891 117.237C114.614 117.34 114.292 117.439 113.924 117.533C113.56 117.62 113.205 117.702 112.858 117.777C112.516 117.845 112.239 117.903 112.026 117.95C111.511 118.061 111.033 118.213 110.593 118.404C110.158 118.589 109.815 118.843 109.563 119.167C109.316 119.484 109.214 119.898 109.257 120.407C109.316 121.103 109.618 121.608 110.163 121.921C110.714 122.228 111.388 122.348 112.186 122.281ZM126.592 122.843C125.505 122.935 124.522 122.742 123.644 122.263C122.765 121.778 122.048 121.052 121.493 120.084C120.937 119.11 120.601 117.932 120.484 116.551C120.369 115.181 120.503 113.972 120.888 112.925C121.273 111.877 121.861 111.043 122.653 110.424C123.444 109.804 124.389 109.447 125.488 109.355C126.337 109.283 127.02 109.368 127.536 109.609C128.058 109.845 128.464 110.13 128.754 110.464C129.05 110.793 129.281 111.064 129.447 111.278L129.617 111.264L129.075 104.843L131.079 104.674L132.548 122.067L130.612 122.23L130.443 120.226L130.205 120.246C130.078 120.496 129.893 120.814 129.652 121.2C129.411 121.579 129.05 121.932 128.57 122.257C128.089 122.577 127.43 122.773 126.592 122.843ZM126.712 121.02C127.516 120.952 128.178 120.685 128.697 120.22C129.216 119.748 129.588 119.127 129.814 118.355C130.039 117.577 130.11 116.696 130.027 115.711C129.945 114.737 129.731 113.897 129.387 113.191C129.041 112.479 128.574 111.942 127.985 111.581C127.395 111.215 126.693 111.066 125.877 111.135C125.028 111.207 124.339 111.484 123.809 111.968C123.285 112.446 122.913 113.067 122.692 113.833C122.477 114.592 122.408 115.431 122.486 116.348C122.564 117.276 122.777 118.108 123.124 118.843C123.476 119.571 123.952 120.136 124.55 120.536C125.153 120.929 125.874 121.091 126.712 121.02ZM140.362 121.715C139.535 121.785 138.772 121.692 138.072 121.438C137.371 121.178 136.798 120.767 136.351 120.206C135.904 119.64 135.645 118.932 135.573 118.082C135.51 117.335 135.606 116.717 135.861 116.228C136.116 115.733 136.478 115.332 136.948 115.024C137.418 114.716 137.945 114.472 138.529 114.292C139.117 114.105 139.711 113.947 140.31 113.816C141.094 113.647 141.731 113.517 142.219 113.424C142.712 113.326 143.067 113.202 143.282 113.052C143.503 112.902 143.6 112.666 143.573 112.343L143.567 112.275C143.497 111.438 143.212 110.806 142.714 110.38C142.222 109.954 141.515 109.78 140.592 109.858C139.635 109.939 138.903 110.212 138.395 110.677C137.886 111.141 137.542 111.621 137.361 112.115L135.402 111.596C135.674 110.775 136.075 110.12 136.604 109.63C137.138 109.135 137.735 108.771 138.394 108.538C139.058 108.3 139.718 108.153 140.375 108.097C140.794 108.062 141.279 108.072 141.832 108.128C142.389 108.178 142.935 108.335 143.471 108.597C144.012 108.859 144.478 109.285 144.87 109.873C145.262 110.462 145.501 111.274 145.589 112.31L146.314 120.904L144.31 121.074L144.161 119.307L144.059 119.316C143.947 119.61 143.746 119.932 143.456 120.282C143.167 120.631 142.768 120.942 142.261 121.213C141.753 121.483 141.12 121.651 140.362 121.715ZM140.515 119.889C141.308 119.822 141.963 119.61 142.48 119.252C143.003 118.895 143.382 118.458 143.618 117.942C143.86 117.425 143.957 116.895 143.911 116.352L143.757 114.517C143.68 114.627 143.501 114.736 143.22 114.845C142.943 114.948 142.621 115.047 142.253 115.141C141.889 115.228 141.534 115.31 141.187 115.384C140.845 115.453 140.568 115.511 140.355 115.557C139.84 115.669 139.362 115.821 138.922 116.012C138.487 116.197 138.144 116.451 137.892 116.775C137.645 117.092 137.543 117.505 137.586 118.015C137.645 118.711 137.947 119.216 138.492 119.529C139.043 119.836 139.717 119.956 140.515 119.889ZM158.358 109.692L156.6 110.354C156.462 110.063 156.27 109.786 156.025 109.521C155.786 109.251 155.471 109.038 155.082 108.883C154.692 108.727 154.206 108.674 153.623 108.724C152.825 108.791 152.175 109.031 151.674 109.444C151.178 109.851 150.954 110.335 151.001 110.895C151.043 111.393 151.257 111.771 151.644 112.03C152.031 112.288 152.617 112.481 153.404 112.608L155.38 112.92C156.57 113.105 157.476 113.464 158.097 113.999C158.718 114.529 159.066 115.249 159.143 116.16C159.206 116.908 159.048 117.594 158.667 118.219C158.292 118.844 157.737 119.358 157.001 119.763C156.266 120.167 155.391 120.412 154.378 120.497C153.047 120.61 151.922 120.414 151.001 119.91C150.08 119.406 149.457 118.609 149.131 117.519L150.993 116.883C151.234 117.57 151.621 118.067 152.154 118.376C152.694 118.684 153.374 118.803 154.195 118.734C155.129 118.655 155.854 118.394 156.369 117.951C156.89 117.503 157.127 116.998 157.08 116.437C157.041 115.984 156.851 115.618 156.508 115.34C156.165 115.055 155.658 114.864 154.989 114.766L152.771 114.441C151.553 114.258 150.638 113.894 150.028 113.346C149.422 112.793 149.081 112.066 149.005 111.166C148.943 110.43 149.095 109.762 149.46 109.161C149.831 108.559 150.363 108.067 151.055 107.683C151.752 107.299 152.559 107.069 153.477 106.991C154.768 106.882 155.805 107.08 156.589 107.584C157.378 108.087 157.968 108.79 158.358 109.692ZM153.602 120.221L155.266 120.08L155.188 120.771C155.635 120.802 156.055 120.951 156.449 121.22C156.843 121.495 157.067 121.964 157.123 122.626C157.185 123.356 156.932 123.976 156.365 124.486C155.804 125.001 154.938 125.308 153.766 125.407L153.586 124.088C154.113 124.044 154.541 123.922 154.872 123.723C155.21 123.529 155.362 123.237 155.329 122.846C155.296 122.455 155.129 122.201 154.828 122.084C154.527 121.967 154.052 121.91 153.402 121.914L153.602 120.221ZM162.467 119.541L161.366 106.496L163.37 106.327L164.471 119.371L162.467 119.541ZM175.853 118.41L173.645 118.597L178.563 100.665L180.737 100.481L188.592 117.334L186.384 117.521L179.95 103.319L179.815 103.33L175.853 118.41ZM176.095 111.547L184.995 110.796L185.153 112.664L176.253 113.416L176.095 111.547ZM191.03 117.129L189.928 104.084L191.864 103.921L192.031 105.891L192.167 105.879C192.35 105.214 192.736 104.654 193.325 104.199C193.914 103.745 194.599 103.485 195.38 103.419C195.527 103.406 195.712 103.393 195.933 103.38C196.154 103.367 196.322 103.362 196.436 103.364L196.608 105.402C196.539 105.391 196.381 105.378 196.135 105.365C195.893 105.345 195.64 105.347 195.374 105.369C194.74 105.423 194.185 105.604 193.709 105.912C193.238 106.214 192.878 106.609 192.629 107.098C192.384 107.58 192.287 108.116 192.337 108.705L193.034 116.959L191.03 117.129ZM203.792 116.359C202.965 116.429 202.202 116.336 201.502 116.082C200.802 115.822 200.228 115.411 199.782 114.85C199.335 114.283 199.075 113.575 199.003 112.726C198.94 111.979 199.036 111.361 199.292 110.872C199.546 110.377 199.909 109.976 200.379 109.668C200.849 109.36 201.376 109.116 201.959 108.936C202.548 108.749 203.142 108.591 203.741 108.46C204.525 108.291 205.161 108.161 205.649 108.068C206.143 107.969 206.497 107.845 206.713 107.696C206.934 107.546 207.031 107.31 207.004 106.987L206.998 106.919C206.927 106.081 206.643 105.45 206.145 105.024C205.653 104.598 204.945 104.424 204.022 104.502C203.066 104.583 202.333 104.856 201.825 105.321C201.317 105.785 200.972 106.265 200.792 106.759L198.832 106.24C199.105 105.419 199.506 104.764 200.035 104.274C200.569 103.779 201.165 103.415 201.824 103.182C202.488 102.944 203.149 102.797 203.805 102.741C204.224 102.706 204.71 102.716 205.262 102.772C205.819 102.822 206.366 102.978 206.901 103.241C207.442 103.503 207.908 103.929 208.3 104.517C208.692 105.106 208.932 105.918 209.019 106.954L209.745 115.548L207.741 115.718L207.592 113.951L207.49 113.96C207.378 114.254 207.177 114.576 206.887 114.926C206.597 115.275 206.199 115.586 205.691 115.856C205.184 116.127 204.551 116.295 203.792 116.359ZM203.946 114.533C204.738 114.466 205.393 114.254 205.911 113.896C206.433 113.539 206.813 113.102 207.049 112.586C207.29 112.069 207.388 111.539 207.342 110.996L207.187 109.161C207.111 109.27 206.932 109.38 206.65 109.489C206.374 109.592 206.051 109.691 205.683 109.784C205.32 109.872 204.965 109.953 204.617 110.028C204.275 110.097 203.998 110.155 203.785 110.201C203.27 110.313 202.793 110.465 202.353 110.656C201.918 110.841 201.574 111.095 201.322 111.419C201.075 111.736 200.973 112.149 201.016 112.659C201.075 113.355 201.377 113.86 201.923 114.173C202.473 114.48 203.147 114.6 203.946 114.533ZM214.745 107.223L215.407 115.07L213.403 115.239L212.302 102.195L214.238 102.031L214.41 104.07L214.58 104.055C214.83 103.367 215.249 102.796 215.838 102.341C216.426 101.881 217.213 101.609 218.198 101.526C219.081 101.451 219.869 101.567 220.562 101.874C221.255 102.174 221.816 102.675 222.246 103.374C222.675 104.067 222.936 104.969 223.03 106.079L223.73 114.367L221.726 114.537L221.037 106.384C220.951 105.359 220.617 104.583 220.037 104.056C219.456 103.524 218.701 103.297 217.773 103.375C217.133 103.429 216.573 103.616 216.092 103.936C215.617 104.256 215.258 104.694 215.014 105.25C214.771 105.807 214.681 106.464 214.745 107.223ZM227.392 114.058L226.291 101.014L228.295 100.844L229.397 113.889L227.392 114.058ZM234.771 118.362C234.432 118.39 234.126 118.388 233.856 118.353C233.585 118.325 233.397 118.29 233.291 118.247L233.651 116.438C234.148 116.521 234.583 116.53 234.953 116.465C235.324 116.399 235.641 116.204 235.905 115.88C236.174 115.56 236.403 115.059 236.59 114.376L236.878 113.326L230.947 100.621L233.121 100.437L237.6 110.528L237.735 110.516L240.459 99.8174L242.633 99.6338L238.358 115.048C238.165 115.743 237.904 116.327 237.573 116.799C237.243 117.278 236.843 117.645 236.375 117.901C235.912 118.157 235.377 118.311 234.771 118.362ZM251.235 112.319C250.057 112.418 249 112.225 248.064 111.74C247.133 111.254 246.376 110.528 245.793 109.562C245.215 108.596 244.87 107.439 244.756 106.092C244.641 104.733 244.787 103.526 245.194 102.471C245.607 101.415 246.231 100.57 247.067 99.935C247.909 99.2995 248.918 98.932 250.096 98.8325C251.274 98.7331 252.328 98.9263 253.258 99.4123C254.194 99.8977 254.952 100.626 255.53 101.598C256.114 102.57 256.463 103.735 256.578 105.093C256.691 106.441 256.542 107.64 256.128 108.689C255.721 109.739 255.097 110.581 254.255 111.217C253.419 111.852 252.412 112.219 251.235 112.319ZM251.083 110.518C251.977 110.443 252.694 110.151 253.233 109.644C253.771 109.137 254.148 108.497 254.362 107.727C254.577 106.956 254.647 106.135 254.573 105.263C254.5 104.391 254.292 103.59 253.951 102.86C253.61 102.131 253.131 101.558 252.515 101.143C251.898 100.727 251.142 100.557 250.248 100.633C249.353 100.708 248.637 101.003 248.099 101.516C247.56 102.029 247.184 102.674 246.97 103.45C246.757 104.226 246.687 105.051 246.76 105.922C246.834 106.794 247.041 107.592 247.381 108.316C247.722 109.04 248.2 109.607 248.817 110.017C249.433 110.427 250.188 110.594 251.083 110.518ZM260.182 111.289L259.08 98.2449L261.017 98.0814L261.183 100.052L261.319 100.04C261.502 99.3747 261.888 98.8147 262.477 98.3601C263.066 97.9055 263.751 97.6453 264.532 97.5793C264.68 97.5669 264.864 97.5542 265.085 97.5412C265.306 97.5282 265.474 97.5226 265.588 97.5243L265.76 99.5625C265.691 99.5513 265.533 99.539 265.287 99.5255C265.046 99.506 264.792 99.5075 264.526 99.5299C263.892 99.5835 263.337 99.7643 262.861 100.072C262.391 100.375 262.031 100.77 261.781 101.258C261.537 101.741 261.439 102.277 261.489 102.865L262.186 111.12L260.182 111.289ZM270.261 92.9217L271.147 105.437L269.176 105.603L267.951 93.1167L270.261 92.9217ZM270.586 110.548C270.167 110.583 269.795 110.463 269.47 110.189C269.144 109.914 268.964 109.567 268.928 109.148C268.893 108.729 269.013 108.357 269.287 108.032C269.562 107.706 269.909 107.526 270.328 107.49C270.747 107.455 271.119 107.575 271.445 107.849C271.77 108.124 271.95 108.471 271.986 108.89C272.009 109.167 271.96 109.428 271.838 109.672C271.722 109.916 271.553 110.118 271.333 110.279C271.118 110.434 270.869 110.524 270.586 110.548Z" fill="black"/>
<path d="M41.6217 182.116L40.7038 171.246L41.6964 171.162L42.539 181.141L47.7194 180.703L47.7947 181.595L41.6217 182.116ZM53.1434 181.314C52.3826 181.379 51.7095 181.257 51.1241 180.95C50.5383 180.64 50.0667 180.182 49.7092 179.578C49.355 178.97 49.143 178.254 49.0734 177.43C49.0041 176.609 49.0929 175.867 49.3399 175.205C49.5901 174.538 49.9672 174.002 50.471 173.596C50.9781 173.186 51.5837 172.952 52.2879 172.892C52.7302 172.855 53.1635 172.9 53.5877 173.028C54.0116 173.153 54.4004 173.368 54.754 173.673C55.1109 173.974 55.4061 174.368 55.6396 174.854C55.8728 175.337 56.0182 175.92 56.0759 176.603L56.1154 177.07L49.746 177.608L49.6756 176.775L55.079 176.318C55.0347 175.795 54.8888 175.333 54.6413 174.933C54.3969 174.53 54.0769 174.222 53.6812 174.009C53.2891 173.797 52.8488 173.711 52.3605 173.752C51.8439 173.796 51.4008 173.972 51.0314 174.281C50.6619 174.591 50.3848 174.981 50.2001 175.453C50.019 175.924 49.9493 176.429 49.9912 176.967L50.0334 177.466C50.088 178.114 50.2473 178.67 50.5112 179.136C50.7783 179.598 51.13 179.945 51.5665 180.175C52.0029 180.406 52.5042 180.497 53.0703 180.449C53.456 180.417 53.7889 180.328 54.0689 180.183C54.3524 180.038 54.5848 179.856 54.7659 179.638C54.9503 179.415 55.0834 179.178 55.1654 178.925L56.0871 179.141C55.9922 179.495 55.8155 179.829 55.5569 180.143C55.3019 180.457 54.9713 180.72 54.5652 180.932C54.1622 181.141 53.6883 181.268 53.1434 181.314ZM63.8922 172.025L61.603 180.429L60.5945 180.514L56.9284 172.613L57.9528 172.526L60.9562 179.227L61.0306 179.221L62.8678 172.111L63.8922 172.025ZM69.4477 179.938C68.6869 180.002 68.0138 179.88 67.4283 179.574C66.8426 179.263 66.371 178.806 66.0135 178.202C65.6592 177.594 65.4473 176.877 65.3777 176.053C65.3084 175.232 65.3972 174.49 65.6442 173.828C65.8944 173.162 66.2715 172.626 66.7753 172.22C67.2824 171.81 67.888 171.575 68.5922 171.516C69.0345 171.478 69.4678 171.524 69.892 171.652C70.3159 171.776 70.7047 171.991 71.0583 172.296C71.4152 172.598 71.7104 172.991 71.9439 173.478C72.1771 173.961 72.3225 174.543 72.3802 175.226L72.4196 175.693L66.0503 176.231L65.9799 175.398L71.3832 174.942C71.339 174.418 71.1931 173.956 70.9456 173.557C70.7012 173.153 70.3812 172.845 69.9855 172.633C69.5933 172.42 69.1531 172.334 68.6648 172.375C68.1482 172.419 67.7051 172.595 67.3356 172.905C66.9662 173.214 66.6891 173.604 66.5044 174.076C66.3233 174.547 66.2536 175.052 66.2955 175.59L66.3376 176.089C66.3923 176.737 66.5516 177.294 66.8155 177.76C67.0826 178.222 67.4343 178.568 67.8707 178.798C68.3072 179.029 68.8084 179.12 69.3746 179.072C69.7603 179.04 70.0932 178.951 70.3732 178.806C70.6567 178.661 70.889 178.479 71.0702 178.261C71.2545 178.039 71.3877 177.801 71.4697 177.548L72.3914 177.765C72.2965 178.118 72.1198 178.452 71.8612 178.766C71.6062 179.08 71.2756 179.343 70.8694 179.556C70.4665 179.764 69.9926 179.892 69.4477 179.938ZM75.3366 174.137L75.7669 179.233L74.8221 179.313L74.1337 171.16L75.0519 171.082L75.1599 172.362L75.2449 172.354C75.4007 171.921 75.6697 171.561 76.0519 171.276C76.4373 170.987 76.929 170.817 77.527 170.766C78.0755 170.72 78.5664 170.794 78.9999 170.99C79.4365 171.181 79.7885 171.488 80.0559 171.911C80.3268 172.333 80.4894 172.867 80.5438 173.511L80.9898 178.792L80.045 178.872L79.604 173.649C79.5475 172.98 79.3153 172.467 78.9073 172.109C78.5029 171.751 77.9875 171.599 77.3612 171.652C76.933 171.688 76.5604 171.812 76.2433 172.024C75.9262 172.236 75.685 172.524 75.5197 172.887C75.3576 173.246 75.2966 173.663 75.3366 174.137ZM86.0006 170.158L86.0701 170.981L82.1794 171.309L82.11 170.486L86.0006 170.158ZM83.1605 168.43L84.1106 168.35L84.7843 176.328C84.813 176.668 84.8939 176.93 85.0271 177.115C85.16 177.296 85.3237 177.419 85.5181 177.485C85.7122 177.547 85.9154 177.569 86.1277 177.551C86.2516 177.54 86.3571 177.524 86.4444 177.503C86.5314 177.478 86.6077 177.453 86.6735 177.43L86.9473 178.267C86.8583 178.311 86.7478 178.352 86.6157 178.392C86.4839 178.435 86.319 178.465 86.1208 178.482C85.774 178.511 85.4332 178.463 85.0983 178.338C84.767 178.213 84.4861 178.008 84.2554 177.725C84.0248 177.442 83.8906 177.077 83.853 176.631L83.1605 168.43ZM89.127 167.157L89.2077 168.112C89.2322 168.402 89.2052 168.717 89.1269 169.055C89.0517 169.389 88.9263 169.718 88.7506 170.043C88.5782 170.364 88.36 170.65 88.096 170.9L87.543 170.493C87.7821 170.159 87.9777 169.795 88.1297 169.401C88.2815 169.003 88.3405 168.604 88.3067 168.204L88.2247 167.233L89.127 167.157ZM94.5396 169.437L94.609 170.26L90.7184 170.588L90.6489 169.765L94.5396 169.437ZM91.6995 167.709L92.6496 167.629L93.3232 175.607C93.3519 175.947 93.4328 176.209 93.5661 176.394C93.699 176.575 93.8626 176.698 94.057 176.764C94.2512 176.826 94.4544 176.848 94.6667 176.83C94.7905 176.819 94.8961 176.803 94.9834 176.782C95.0703 176.757 95.1467 176.732 95.2124 176.709L95.4863 177.546C95.3973 177.59 95.2867 177.631 95.1546 177.671C95.0229 177.714 94.8579 177.744 94.6597 177.761C94.313 177.79 93.9721 177.742 93.6373 177.617C93.306 177.492 93.025 177.287 92.7944 177.004C92.5637 176.72 92.4296 176.356 92.3919 175.91L91.6995 167.709ZM100.597 177.307C99.8358 177.372 99.1627 177.25 98.5773 176.943C97.9915 176.633 97.5199 176.175 97.1624 175.571C96.8082 174.963 96.5962 174.247 96.5266 173.423C96.4573 172.602 96.5461 171.86 96.7931 171.198C97.0433 170.532 97.4204 169.995 97.9242 169.589C98.4313 169.179 99.0369 168.945 99.7411 168.885C100.183 168.848 100.617 168.893 101.041 169.021C101.465 169.146 101.854 169.361 102.207 169.666C102.564 169.967 102.859 170.361 103.093 170.847C103.326 171.33 103.471 171.913 103.529 172.596L103.569 173.063L97.1992 173.601L97.1288 172.768L102.532 172.311C102.488 171.788 102.342 171.326 102.094 170.926C101.85 170.523 101.53 170.215 101.134 170.003C100.742 169.79 100.302 169.704 99.8137 169.745C99.2971 169.789 98.854 169.965 98.4845 170.274C98.1151 170.584 97.838 170.974 97.6533 171.446C97.4722 171.917 97.4025 172.422 97.4444 172.96L97.4866 173.459C97.5412 174.107 97.7005 174.663 97.9644 175.129C98.2315 175.592 98.5832 175.938 99.0196 176.168C99.4561 176.399 99.9574 176.49 100.524 176.442C100.909 176.41 101.242 176.321 101.522 176.176C101.806 176.031 102.038 175.849 102.219 175.631C102.403 175.409 102.537 175.171 102.619 174.918L103.54 175.134C103.445 175.488 103.269 175.822 103.01 176.136C102.755 176.45 102.424 176.713 102.018 176.925C101.615 177.134 101.142 177.261 100.597 177.307ZM113.68 176.181C113.011 176.238 112.403 176.168 111.855 175.972C111.308 175.772 110.861 175.469 110.517 175.064C110.173 174.658 109.968 174.175 109.903 173.613L110.906 173.529C110.957 173.924 111.109 174.26 111.36 174.538C111.611 174.813 111.932 175.017 112.321 175.152C112.71 175.283 113.134 175.329 113.594 175.29C114.096 175.248 114.531 175.117 114.897 174.897C115.267 174.677 115.546 174.395 115.735 174.051C115.926 173.704 116.004 173.323 115.969 172.909C115.932 172.47 115.788 172.092 115.537 171.775C115.286 171.457 114.943 171.222 114.51 171.07C114.08 170.918 113.577 170.866 113 170.914L112.363 170.968L112.288 170.076L112.925 170.023C113.395 169.983 113.804 169.863 114.15 169.663C114.5 169.458 114.766 169.192 114.949 168.863C115.131 168.534 115.205 168.159 115.169 167.738C115.136 167.338 115.016 166.993 114.809 166.704C114.603 166.415 114.328 166.198 113.985 166.052C113.644 165.906 113.257 165.852 112.821 165.888C112.4 165.924 112.022 166.038 111.685 166.23C111.348 166.423 111.085 166.677 110.894 166.992C110.707 167.307 110.623 167.669 110.643 168.077L109.683 168.158C109.649 167.591 109.763 167.08 110.024 166.627C110.288 166.17 110.658 165.8 111.133 165.518C111.611 165.232 112.153 165.063 112.758 165.012C113.399 164.958 113.963 165.042 114.453 165.264C114.942 165.487 115.332 165.805 115.624 166.218C115.918 166.628 116.088 167.093 116.132 167.614C116.184 168.233 116.061 168.778 115.762 169.248C115.463 169.716 115.036 170.058 114.48 170.276L114.486 170.345C115.191 170.425 115.762 170.686 116.199 171.131C116.639 171.571 116.888 172.136 116.946 172.826C116.995 173.407 116.887 173.941 116.622 174.431C116.356 174.916 115.97 175.316 115.462 175.63C114.957 175.94 114.363 176.124 113.68 176.181ZM122.57 173.207L122.002 166.482L122.91 166.405L123.477 173.13L122.57 173.207ZM119.416 170.544L119.339 169.636L126.064 169.068L126.141 169.976L119.416 170.544ZM131.71 163.561L132.628 174.432L131.636 174.515L130.806 164.685L130.742 164.691L128.337 166.599L128.25 165.569L130.675 163.649L131.71 163.561ZM143.481 173.686C142.72 173.75 142.047 173.629 141.462 173.322C140.876 173.012 140.404 172.554 140.047 171.95C139.693 171.342 139.481 170.626 139.411 169.801C139.342 168.98 139.431 168.239 139.678 167.576C139.928 166.91 140.305 166.374 140.809 165.968C141.316 165.558 141.921 165.324 142.626 165.264C143.068 165.227 143.501 165.272 143.925 165.4C144.349 165.525 144.738 165.74 145.092 166.045C145.449 166.346 145.744 166.74 145.977 167.226C146.21 167.709 146.356 168.292 146.414 168.975L146.453 169.442L140.084 169.98L140.013 169.146L145.417 168.69C145.372 168.167 145.227 167.705 144.979 167.305C144.735 166.902 144.415 166.594 144.019 166.381C143.627 166.169 143.187 166.083 142.698 166.124C142.182 166.168 141.739 166.344 141.369 166.653C141 166.962 140.722 167.353 140.538 167.825C140.357 168.296 140.287 168.801 140.329 169.339L140.371 169.838C140.426 170.486 140.585 171.042 140.849 171.508C141.116 171.97 141.468 172.317 141.904 172.547C142.341 172.777 142.842 172.869 143.408 172.821C143.794 172.788 144.127 172.7 144.407 172.555C144.69 172.41 144.922 172.228 145.104 172.01C145.288 171.787 145.421 171.55 145.503 171.297L146.425 171.513C146.33 171.867 146.153 172.201 145.895 172.515C145.64 172.829 145.309 173.092 144.903 173.304C144.5 173.513 144.026 173.64 143.481 173.686ZM154.23 164.397L151.941 172.801L150.932 172.886L147.266 164.985L148.29 164.898L151.294 171.599L151.368 171.593L153.206 164.483L154.23 164.397ZM156.777 172.392L156.089 164.24L157.039 164.159L157.728 172.312L156.777 172.392ZM156.454 162.797C156.259 162.814 156.087 162.762 155.938 162.643C155.789 162.52 155.706 162.365 155.69 162.178C155.675 161.99 155.73 161.825 155.857 161.683C155.984 161.536 156.144 161.455 156.339 161.439C156.534 161.422 156.706 161.475 156.855 161.598C157.004 161.718 157.086 161.871 157.102 162.058C157.118 162.246 157.063 162.413 156.936 162.559C156.809 162.702 156.648 162.781 156.454 162.797ZM160.226 172.101L159.538 163.948L160.456 163.871L160.562 165.123L160.647 165.116C160.774 164.681 161.017 164.328 161.375 164.055C161.737 163.779 162.184 163.618 162.719 163.573C163.281 163.525 163.754 163.619 164.138 163.854C164.524 164.085 164.827 164.423 165.047 164.868L165.116 164.862C165.261 164.393 165.53 164.009 165.922 163.709C166.316 163.404 166.811 163.227 167.406 163.177C168.163 163.113 168.781 163.301 169.26 163.742C169.739 164.179 170.017 164.854 170.094 165.767L170.555 171.229L169.61 171.309L169.149 165.847C169.095 165.203 168.889 164.734 168.533 164.44C168.177 164.145 167.73 164.021 167.192 164.066C166.569 164.119 166.106 164.351 165.802 164.761C165.498 165.172 165.371 165.671 165.421 166.258L165.874 171.624L164.908 171.706L164.439 166.159C164.393 165.607 164.201 165.174 163.865 164.861C163.528 164.547 163.08 164.414 162.521 164.461C162.146 164.493 161.816 164.613 161.531 164.822C161.249 165.032 161.035 165.308 160.89 165.652C160.747 165.992 160.694 166.374 160.73 166.798L161.171 172.021L160.226 172.101ZM173.067 171.017L172.379 162.864L173.329 162.784L174.017 170.937L173.067 171.017ZM172.743 161.422C172.549 161.438 172.377 161.387 172.228 161.268C172.078 161.145 171.996 160.99 171.98 160.802C171.964 160.615 172.02 160.45 172.147 160.307C172.273 160.161 172.434 160.08 172.629 160.063C172.823 160.047 172.995 160.1 173.145 160.223C173.294 160.342 173.376 160.495 173.392 160.683C173.408 160.871 173.352 161.037 173.226 161.183C173.099 161.326 172.938 161.406 172.743 161.422ZM176.261 170.747L176.198 169.999L180.367 163.157L180.361 163.088L175.85 163.469L175.774 162.577L181.501 162.094L181.567 162.874L177.48 169.677L177.486 169.746L182.284 169.34L182.36 170.232L176.261 170.747ZM187.519 169.968C186.758 170.032 186.085 169.91 185.499 169.604C184.914 169.293 184.442 168.836 184.085 168.232C183.73 167.624 183.518 166.907 183.449 166.083C183.379 165.262 183.468 164.52 183.715 163.858C183.965 163.192 184.342 162.656 184.846 162.25C185.353 161.84 185.959 161.605 186.663 161.546C187.106 161.508 187.539 161.554 187.963 161.682C188.387 161.806 188.776 162.021 189.129 162.326C189.486 162.628 189.781 163.021 190.015 163.508C190.248 163.991 190.394 164.573 190.451 165.256L190.491 165.723L184.121 166.261L184.051 165.428L189.454 164.972C189.41 164.448 189.264 163.986 189.017 163.587C188.772 163.183 188.452 162.875 188.057 162.663C187.664 162.45 187.224 162.364 186.736 162.405C186.219 162.449 185.776 162.625 185.407 162.935C185.037 163.244 184.76 163.634 184.575 164.106C184.394 164.577 184.325 165.082 184.367 165.62L184.409 166.119C184.463 166.767 184.623 167.324 184.886 167.79C185.154 168.252 185.505 168.598 185.942 168.828C186.378 169.059 186.879 169.15 187.446 169.102C187.831 169.07 188.164 168.981 188.444 168.836C188.728 168.691 188.96 168.509 189.141 168.291C189.326 168.069 189.459 167.831 189.541 167.578L190.462 167.795C190.368 168.148 190.191 168.482 189.932 168.796C189.677 169.11 189.347 169.373 188.94 169.586C188.538 169.794 188.064 169.922 187.519 169.968ZM200.602 168.841C199.933 168.898 199.325 168.828 198.777 168.632C198.23 168.432 197.784 168.13 197.439 167.724C197.095 167.318 196.89 166.835 196.825 166.274L197.828 166.189C197.879 166.584 198.031 166.92 198.282 167.198C198.533 167.473 198.854 167.678 199.243 167.812C199.632 167.943 200.056 167.989 200.516 167.951C201.019 167.908 201.453 167.777 201.819 167.557C202.189 167.337 202.468 167.055 202.657 166.711C202.848 166.364 202.927 165.983 202.892 165.569C202.855 165.13 202.71 164.752 202.459 164.435C202.208 164.117 201.865 163.883 201.432 163.73C201.002 163.578 200.499 163.526 199.922 163.575L199.285 163.628L199.21 162.737L199.847 162.683C200.317 162.643 200.726 162.523 201.073 162.323C201.422 162.119 201.689 161.852 201.871 161.523C202.054 161.194 202.127 160.819 202.091 160.398C202.058 159.998 201.938 159.654 201.732 159.364C201.525 159.075 201.25 158.858 200.907 158.712C200.567 158.567 200.179 158.512 199.744 158.549C199.322 158.584 198.944 158.698 198.607 158.891C198.271 159.083 198.007 159.337 197.816 159.652C197.629 159.967 197.545 160.329 197.566 160.737L196.605 160.818C196.571 160.251 196.685 159.741 196.946 159.287C197.21 158.83 197.58 158.461 198.055 158.178C198.533 157.892 199.075 157.723 199.68 157.672C200.321 157.618 200.886 157.702 201.375 157.925C201.864 158.147 202.254 158.465 202.546 158.879C202.841 159.289 203.01 159.754 203.054 160.274C203.106 160.893 202.983 161.438 202.684 161.909C202.385 162.376 201.958 162.718 201.402 162.936L201.408 163.005C202.113 163.085 202.684 163.347 203.121 163.791C203.561 164.231 203.81 164.797 203.868 165.487C203.917 166.067 203.809 166.602 203.544 167.091C203.278 167.577 202.892 167.976 202.384 168.29C201.879 168.6 201.285 168.784 200.602 168.841ZM206.863 168.243C206.655 168.261 206.468 168.202 206.303 168.066C206.142 167.926 206.052 167.752 206.035 167.543C206.017 167.331 206.076 167.144 206.212 166.983C206.351 166.822 206.526 166.732 206.734 166.715C206.947 166.697 207.133 166.756 207.295 166.892C207.456 167.028 207.545 167.202 207.563 167.414C207.575 167.552 207.55 167.683 207.489 167.805C207.432 167.928 207.348 168.029 207.237 168.11C207.129 168.187 207.005 168.231 206.863 168.243ZM214.517 167.517L213.599 156.646L219.905 156.114L219.98 157.006L214.667 157.454L215.013 161.547L219.991 161.126L220.067 162.018L215.088 162.438L215.434 166.541L220.854 166.084L220.929 166.975L214.517 167.517ZM223.195 166.784L222.507 158.631L223.425 158.554L223.531 159.806L223.6 159.8C223.728 159.376 223.983 159.021 224.365 158.736C224.751 158.447 225.2 158.281 225.713 158.237C225.791 158.231 225.878 158.225 225.974 158.221C226.07 158.216 226.15 158.213 226.214 158.211L226.295 159.172C226.252 159.168 226.176 159.164 226.069 159.159C225.962 159.154 225.846 159.156 225.722 159.167C225.298 159.203 224.927 159.325 224.609 159.533C224.295 159.738 224.056 160.006 223.891 160.337C223.727 160.668 223.662 161.035 223.696 161.439L224.14 166.704L223.195 166.784ZM229.123 163.183L229.008 161.947L229.22 161.929L232.718 157.769L233.912 157.668L230.457 161.766L230.374 161.789L229.123 163.183ZM228.523 166.334L227.605 155.464L228.55 155.384L229.468 166.254L228.523 166.334ZM233.603 165.905L229.937 161.997L230.561 161.287L234.813 165.803L233.603 165.905ZM239.351 165.591C238.59 165.655 237.917 165.534 237.332 165.227C236.746 164.916 236.274 164.459 235.917 163.855C235.562 163.247 235.35 162.531 235.281 161.706C235.212 160.885 235.3 160.144 235.547 159.481C235.798 158.815 236.175 158.279 236.678 157.873C237.186 157.463 237.791 157.228 238.495 157.169C238.938 157.131 239.371 157.177 239.795 157.305C240.219 157.43 240.608 157.644 240.961 157.95C241.318 158.251 241.614 158.645 241.847 159.131C242.08 159.614 242.226 160.197 242.283 160.88L242.323 161.347L235.953 161.885L235.883 161.051L241.286 160.595C241.242 160.071 241.096 159.61 240.849 159.21C240.604 158.806 240.284 158.499 239.889 158.286C239.497 158.073 239.056 157.987 238.568 158.029C238.051 158.072 237.608 158.249 237.239 158.558C236.869 158.867 236.592 159.258 236.408 159.729C236.226 160.201 236.157 160.706 236.199 161.244L236.241 161.743C236.295 162.39 236.455 162.947 236.719 163.413C236.986 163.875 237.337 164.221 237.774 164.452C238.21 164.682 238.712 164.773 239.278 164.726C239.663 164.693 239.996 164.604 240.276 164.46C240.56 164.314 240.792 164.133 240.973 163.914C241.158 163.692 241.291 163.454 241.373 163.202L242.295 163.418C242.2 163.772 242.023 164.105 241.764 164.419C241.509 164.733 241.179 164.996 240.773 165.209C240.37 165.418 239.896 165.545 239.351 165.591ZM245.325 161.815L245.21 160.579L245.422 160.561L248.92 156.401L250.114 156.3L246.66 160.398L246.576 160.421L245.325 161.815ZM244.725 164.966L243.807 154.096L244.752 154.016L245.67 164.886L244.725 164.966ZM249.805 164.537L246.139 160.629L246.763 159.919L251.015 164.435L249.805 164.537ZM45.2326 200.062C44.7407 200.104 44.2833 200.046 43.8602 199.89C43.4368 199.729 43.0895 199.477 42.8181 199.133C42.5464 198.785 42.3884 198.35 42.3442 197.826C42.3101 197.423 42.3575 197.076 42.4864 196.788C42.6152 196.499 42.8119 196.254 43.0766 196.053C43.3412 195.853 43.6602 195.685 44.0337 195.55C44.4072 195.415 44.8216 195.3 45.2768 195.205C45.7285 195.11 46.11 195.028 46.4214 194.958C46.7362 194.889 46.9729 194.801 47.1315 194.695C47.29 194.589 47.3606 194.434 47.3433 194.228L47.3272 194.037C47.2803 193.482 47.077 193.059 46.7175 192.768C46.3613 192.474 45.8735 192.353 45.2543 192.406C44.6669 192.455 44.1983 192.625 43.8486 192.915C43.5024 193.204 43.2697 193.53 43.1507 193.893L42.2263 193.645C42.3727 193.183 42.5974 192.806 42.9006 192.513C43.2034 192.217 43.5516 191.993 43.9451 191.843C44.3384 191.688 44.742 191.594 45.156 191.559C45.4674 191.532 45.7946 191.546 46.1376 191.599C46.4842 191.651 46.8111 191.766 47.1183 191.943C47.4252 192.117 47.684 192.375 47.8946 192.717C48.1049 193.056 48.2331 193.498 48.2791 194.043L48.7466 199.579L47.8018 199.658L47.6929 198.369L47.6345 198.373C47.5416 198.624 47.3932 198.871 47.1894 199.117C46.9856 199.362 46.7218 199.571 46.3979 199.745C46.0739 199.918 45.6855 200.024 45.2326 200.062ZM45.2869 199.186C45.7894 199.144 46.2152 198.996 46.5644 198.742C46.9136 198.488 47.1717 198.168 47.3388 197.784C47.5091 197.395 47.5755 196.978 47.5378 196.532L47.4383 195.354C47.3732 195.427 47.2598 195.497 47.0979 195.564C46.9396 195.631 46.7544 195.695 46.5421 195.755C46.3331 195.812 46.1236 195.864 45.9137 195.91C45.7038 195.956 45.5148 195.997 45.3467 196.033C44.8915 196.128 44.5062 196.25 44.1908 196.398C43.8754 196.546 43.64 196.733 43.4845 196.96C43.3288 197.183 43.2648 197.46 43.2926 197.789C43.3344 198.284 43.5437 198.653 43.9206 198.896C44.2972 199.135 44.7526 199.232 45.2869 199.186ZM51.2599 199.366L50.5714 191.214L51.4897 191.136L51.5955 192.389L51.6645 192.383C51.7926 191.959 52.0477 191.604 52.4299 191.319C52.8153 191.029 53.2646 190.863 53.7777 190.82C53.8555 190.813 53.9423 190.808 54.0382 190.803C54.134 190.799 54.2139 190.795 54.2779 190.794L54.3591 191.754C54.316 191.751 54.2408 191.747 54.1334 191.741C54.0261 191.736 53.9105 191.739 53.7866 191.749C53.362 191.785 52.991 191.907 52.6736 192.116C52.3595 192.321 52.1202 192.588 51.9557 192.92C51.7912 193.251 51.726 193.618 51.76 194.021L52.2046 199.287L51.2599 199.366ZM57.1875 195.765L57.0724 194.53L57.2848 194.512L60.7823 190.351L61.9766 190.25L58.5219 194.348L58.4383 194.371L57.1875 195.765ZM56.5876 198.916L55.6697 188.046L56.6145 187.966L57.5324 198.837L56.5876 198.916ZM61.6672 198.488L58.0014 194.579L58.6257 193.869L62.8773 198.385L61.6672 198.488ZM66.7332 198.247C66.2414 198.288 65.7839 198.231 65.3608 198.074C64.9375 197.914 64.5901 197.662 64.3187 197.317C64.047 196.97 63.889 196.534 63.8448 196.01C63.8108 195.607 63.8581 195.261 63.987 194.972C64.1159 194.683 64.3126 194.438 64.5772 194.238C64.8418 194.037 65.1608 193.87 65.5343 193.735C65.9078 193.6 66.3222 193.485 66.7774 193.389C67.2291 193.294 67.6106 193.212 67.922 193.143C68.2369 193.074 68.4736 192.986 68.6321 192.88C68.7907 192.774 68.8613 192.618 68.8439 192.413L68.8278 192.222C68.7809 191.666 68.5777 191.243 68.2182 190.953C67.8619 190.659 67.3741 190.538 66.7549 190.59C66.1675 190.64 65.6989 190.809 65.3492 191.099C65.003 191.388 64.7704 191.715 64.6513 192.077L63.727 191.829C63.8733 191.368 64.0981 190.991 64.4012 190.698C64.7041 190.402 65.0522 190.178 65.4458 190.027C65.839 189.873 66.2426 189.778 66.6566 189.743C66.968 189.717 67.2952 189.73 67.6383 189.783C67.9848 189.836 68.3117 189.951 68.6189 190.128C68.9258 190.302 69.1846 190.56 69.3952 190.902C69.6056 191.24 69.7338 191.682 69.7798 192.227L70.2472 197.763L69.3024 197.843L69.1935 196.553L69.1351 196.558C69.0422 196.808 68.8939 197.056 68.6901 197.301C68.4863 197.546 68.2224 197.756 67.8985 197.929C67.5746 198.103 67.1862 198.209 66.7332 198.247ZM66.7876 197.371C67.29 197.329 67.7159 197.18 68.065 196.926C68.4142 196.672 68.6724 196.353 68.8394 195.968C69.0098 195.58 69.0761 195.162 69.0385 194.717L68.939 193.538C68.8739 193.611 68.7604 193.682 68.5986 193.749C68.4403 193.816 68.255 193.879 68.0427 193.94C67.8337 193.997 67.6242 194.048 67.4143 194.095C67.2044 194.141 67.0154 194.182 66.8473 194.217C66.3921 194.313 66.0068 194.434 65.6914 194.582C65.376 194.73 65.1406 194.917 64.9852 195.144C64.8294 195.368 64.7654 195.644 64.7932 195.973C64.835 196.468 65.0444 196.837 65.4212 197.08C65.7978 197.319 66.2532 197.416 66.7876 197.371ZM75.7101 197.473C75.0413 197.529 74.4407 197.402 73.9083 197.09C73.376 196.779 72.9415 196.319 72.605 195.709C72.2719 195.099 72.0699 194.373 71.9987 193.531C71.9279 192.692 72.0057 191.946 72.2321 191.293C72.4617 190.636 72.8147 190.11 73.2911 189.717C73.7672 189.321 74.3415 189.094 75.0138 189.037C75.5092 188.996 75.9289 189.049 76.2729 189.198C76.6166 189.344 76.8985 189.538 77.1185 189.779C77.3384 190.021 77.5136 190.259 77.6439 190.494L77.7288 190.487L77.368 186.214L78.3181 186.134L79.236 197.004L78.3125 197.082L78.1847 195.569L78.0733 195.579C77.9845 195.836 77.8503 196.104 77.6707 196.382C77.4908 196.658 77.242 196.898 76.9244 197.103C76.6102 197.308 76.2054 197.431 75.7101 197.473ZM75.7485 196.598C76.2757 196.554 76.713 196.372 77.0603 196.054C77.4074 195.733 77.6569 195.311 77.8087 194.789C77.9639 194.262 78.0137 193.67 77.9581 193.012C77.9031 192.361 77.7572 191.794 77.5205 191.311C77.2834 190.825 76.9672 190.457 76.5717 190.205C76.176 189.95 75.7127 189.844 75.1819 189.889C74.637 189.935 74.1895 190.123 73.8396 190.452C73.4928 190.777 73.2433 191.199 73.0912 191.718C72.9425 192.236 72.8946 192.809 72.9475 193.435C73.001 194.068 73.1466 194.632 73.3842 195.125C73.6218 195.618 73.9391 195.999 74.3361 196.268C74.7363 196.534 75.2071 196.644 75.7485 196.598ZM84.2198 196.77C83.728 196.812 83.2705 196.754 82.8474 196.598C82.4241 196.437 82.0767 196.185 81.8053 195.841C81.5336 195.493 81.3756 195.058 81.3314 194.534C81.2974 194.13 81.3447 193.784 81.4736 193.495C81.6024 193.207 81.7992 192.962 82.0638 192.761C82.3284 192.561 82.6474 192.393 83.0209 192.258C83.3944 192.123 83.8088 192.008 84.264 191.913C84.7157 191.818 85.0972 191.735 85.4086 191.666C85.7235 191.597 85.9602 191.509 86.1187 191.403C86.2773 191.297 86.3479 191.142 86.3305 190.936L86.3144 190.745C86.2675 190.19 86.0643 189.767 85.7048 189.476C85.3485 189.182 84.8607 189.061 84.2415 189.113C83.6541 189.163 83.1855 189.333 82.8358 189.622C82.4896 189.912 82.257 190.238 82.1379 190.601L81.2136 190.353C81.3599 189.891 81.5847 189.514 81.8878 189.221C82.1906 188.925 82.5388 188.701 82.9324 188.55C83.3256 188.396 83.7292 188.301 84.1432 188.266C84.4546 188.24 84.7818 188.254 85.1249 188.307C85.4714 188.359 85.7983 188.474 86.1055 188.651C86.4124 188.825 86.6712 189.083 86.8818 189.425C87.0922 189.764 87.2204 190.205 87.2664 190.75L87.7338 196.286L86.789 196.366L86.6801 195.076L86.6217 195.081C86.5288 195.332 86.3805 195.579 86.1767 195.825C85.9729 196.07 85.709 196.279 85.3851 196.453C85.0612 196.626 84.6728 196.732 84.2198 196.77ZM84.2742 195.894C84.7766 195.852 85.2025 195.704 85.5516 195.45C85.9008 195.196 86.159 194.876 86.326 194.492C86.4964 194.103 86.5627 193.686 86.5251 193.24L86.4256 192.062C86.3605 192.135 86.247 192.205 86.0852 192.272C85.9269 192.339 85.7416 192.403 85.5293 192.463C85.3203 192.52 85.1108 192.572 84.9009 192.618C84.691 192.664 84.502 192.705 84.3339 192.741C83.8787 192.836 83.4934 192.958 83.178 193.106C82.8626 193.253 82.6272 193.441 82.4717 193.668C82.316 193.891 82.252 194.167 82.2798 194.496C82.3216 194.992 82.531 195.361 82.9078 195.603C83.2844 195.843 83.7398 195.939 84.2742 195.894ZM95.1874 189.248L94.3428 189.565C94.2373 189.328 94.0983 189.117 93.9259 188.932C93.7534 188.747 93.5367 188.607 93.2756 188.511C93.018 188.415 92.7052 188.383 92.3372 188.414C91.7852 188.46 91.3433 188.63 91.0116 188.921C90.6798 189.213 90.5314 189.566 90.5664 189.98C90.596 190.33 90.7403 190.605 90.9995 190.804C91.2619 190.999 91.6515 191.139 92.1682 191.224L93.4252 191.422C94.1222 191.531 94.6557 191.752 95.0259 192.084C95.3996 192.416 95.6095 192.854 95.6555 193.399C95.6944 193.859 95.6015 194.279 95.3769 194.657C95.1523 195.036 94.8204 195.348 94.3813 195.592C93.9454 195.831 93.4284 195.977 92.8304 196.027C92.0342 196.094 91.3627 195.971 90.8159 195.657C90.2688 195.34 89.8941 194.848 89.6916 194.181L90.5804 193.881C90.7381 194.356 90.9973 194.703 91.3579 194.922C91.7221 195.141 92.1837 195.226 92.7428 195.179C93.3691 195.126 93.858 194.944 94.2095 194.633C94.5607 194.318 94.7183 193.949 94.6825 193.524C94.6547 193.195 94.5217 192.928 94.2835 192.724C94.045 192.516 93.6983 192.378 93.2435 192.309L91.8843 192.103C91.1623 191.993 90.6158 191.768 90.2451 191.429C89.8743 191.09 89.6659 190.648 89.6199 190.103C89.5819 189.653 89.6707 189.248 89.8862 188.888C90.1014 188.524 90.4148 188.227 90.8265 187.996C91.2383 187.765 91.7184 187.627 92.2668 187.581C93.0135 187.517 93.6241 187.637 94.0986 187.939C94.5764 188.237 94.9393 188.673 95.1874 189.248ZM92.4622 195.844L93.269 195.776L93.2252 196.208C93.5334 196.228 93.802 196.328 94.0311 196.508C94.2639 196.692 94.3984 196.976 94.4345 197.362C94.4672 197.79 94.3278 198.144 94.0164 198.423C93.7085 198.702 93.2328 198.873 92.5894 198.934L92.5016 198.273C92.8513 198.237 93.1222 198.153 93.3143 198.023C93.5068 197.896 93.5925 197.709 93.5716 197.461C93.5492 197.196 93.4396 197.016 93.2428 196.923C93.0495 196.828 92.7521 196.788 92.3504 196.8L92.4622 195.844ZM104.407 195.066C103.915 195.107 103.457 195.05 103.034 194.893C102.611 194.733 102.264 194.48 101.992 194.136C101.721 193.789 101.563 193.353 101.518 192.829C101.484 192.426 101.532 192.08 101.661 191.791C101.789 191.502 101.986 191.257 102.251 191.057C102.515 190.856 102.834 190.689 103.208 190.554C103.581 190.419 103.996 190.304 104.451 190.208C104.903 190.113 105.284 190.031 105.596 189.962C105.91 189.892 106.147 189.805 106.306 189.699C106.464 189.593 106.535 189.437 106.517 189.232L106.501 189.041C106.454 188.485 106.251 188.062 105.892 187.772C105.535 187.478 105.048 187.357 104.428 187.409C103.841 187.458 103.372 187.628 103.023 187.918C102.677 188.207 102.444 188.533 102.325 188.896L101.401 188.648C101.547 188.187 101.772 187.81 102.075 187.517C102.378 187.22 102.726 186.997 103.119 186.846C103.513 186.691 103.916 186.597 104.33 186.562C104.642 186.536 104.969 186.549 105.312 186.602C105.658 186.655 105.985 186.77 106.292 186.947C106.599 187.12 106.858 187.378 107.069 187.72C107.279 188.059 107.407 188.501 107.453 189.046L107.921 194.582L106.976 194.662L106.867 193.372L106.809 193.377C106.716 193.627 106.567 193.875 106.364 194.12C106.16 194.365 105.896 194.575 105.572 194.748C105.248 194.922 104.86 195.027 104.407 195.066ZM104.461 194.19C104.964 194.147 105.389 193.999 105.739 193.745C106.088 193.491 106.346 193.172 106.513 192.787C106.683 192.398 106.75 191.981 106.712 191.535L106.613 190.357C106.547 190.43 106.434 190.5 106.272 190.568C106.114 190.634 105.929 190.698 105.716 190.759C105.507 190.816 105.298 190.867 105.088 190.913C104.878 190.96 104.689 191.001 104.521 191.036C104.066 191.132 103.68 191.253 103.365 191.401C103.05 191.549 102.814 191.736 102.659 191.963C102.503 192.187 102.439 192.463 102.467 192.792C102.509 193.287 102.718 193.656 103.095 193.899C103.471 194.138 103.927 194.235 104.461 194.19ZM110.434 194.37L109.746 186.217L110.664 186.139L110.77 187.392L110.839 187.386C110.967 186.962 111.222 186.607 111.604 186.322C111.989 186.033 112.439 185.866 112.952 185.823C113.03 185.817 113.117 185.811 113.212 185.807C113.308 185.802 113.388 185.799 113.452 185.797L113.533 186.758C113.49 186.754 113.415 186.75 113.308 186.745C113.2 186.739 113.085 186.742 112.961 186.753C112.536 186.788 112.165 186.911 111.848 187.119C111.534 187.324 111.294 187.592 111.13 187.923C110.965 188.254 110.9 188.621 110.934 189.025L111.379 194.29L110.434 194.37ZM115.772 193.919L115.084 185.766L116.034 185.686L116.722 193.839L115.772 193.919ZM120.137 196.629C119.95 196.645 119.773 196.642 119.607 196.621C119.442 196.599 119.309 196.571 119.21 196.537L119.395 195.682C119.725 195.754 120.015 195.765 120.263 195.715C120.513 195.669 120.726 195.537 120.904 195.319C121.081 195.105 121.229 194.786 121.347 194.362L121.574 193.509L117.88 185.53L118.904 185.443L121.908 192.145L121.982 192.138L123.819 185.028L124.844 184.942L122.191 194.676C122.079 195.081 121.928 195.423 121.738 195.703C121.548 195.986 121.319 196.204 121.05 196.355C120.785 196.509 120.481 196.6 120.137 196.629ZM130.272 192.866C129.568 192.925 128.93 192.799 128.358 192.487C127.79 192.175 127.327 191.717 126.97 191.113C126.612 190.505 126.398 189.788 126.328 188.959C126.258 188.124 126.348 187.377 126.599 186.718C126.849 186.056 127.228 185.525 127.736 185.125C128.248 184.722 128.855 184.491 129.56 184.431C130.264 184.372 130.9 184.498 131.468 184.81C132.036 185.122 132.499 185.582 132.857 186.19C133.218 186.797 133.434 187.518 133.504 188.354C133.574 189.182 133.484 189.925 133.233 190.584C132.982 191.24 132.601 191.769 132.09 192.172C131.582 192.575 130.976 192.806 130.272 192.866ZM130.199 192C130.765 191.953 131.231 191.76 131.599 191.423C131.966 191.085 132.229 190.655 132.388 190.132C132.55 189.608 132.606 189.042 132.554 188.434C132.503 187.825 132.353 187.275 132.105 186.782C131.86 186.29 131.528 185.906 131.11 185.632C130.691 185.357 130.198 185.244 129.632 185.291C129.07 185.339 128.603 185.533 128.233 185.875C127.866 186.216 127.601 186.65 127.439 187.176C127.281 187.703 127.227 188.271 127.278 188.879C127.33 189.488 127.478 190.037 127.722 190.526C127.97 191.014 128.303 191.394 128.722 191.665C129.14 191.937 129.633 192.048 130.199 192ZM135.92 192.218L135.231 184.065L136.149 183.987L136.255 185.24L136.324 185.234C136.452 184.81 136.707 184.455 137.09 184.17C137.475 183.881 137.924 183.714 138.437 183.671C138.515 183.665 138.602 183.659 138.698 183.655C138.794 183.65 138.874 183.647 138.938 183.645L139.019 184.606C138.976 184.602 138.9 184.598 138.793 184.593C138.686 184.587 138.57 184.59 138.446 184.601C138.022 184.636 137.651 184.759 137.333 184.967C137.019 185.172 136.78 185.44 136.615 185.771C136.451 186.102 136.386 186.469 136.42 186.873L136.864 192.138L135.92 192.218ZM146.165 188.215L145.739 183.178L146.684 183.098L147.372 191.251L146.428 191.33L146.313 189.977L146.239 189.983C146.083 190.417 145.81 190.791 145.42 191.105C145.029 191.416 144.535 191.597 143.937 191.648C143.416 191.692 142.945 191.617 142.523 191.425C142.1 191.229 141.755 190.92 141.487 190.497C141.22 190.074 141.059 189.54 141.005 188.896L140.559 183.615L141.504 183.535L141.945 188.758C141.998 189.395 142.229 189.892 142.637 190.25C143.045 190.604 143.542 190.756 144.13 190.706C144.498 190.675 144.844 190.557 145.169 190.351C145.494 190.146 145.751 189.864 145.942 189.506C146.133 189.144 146.207 188.714 146.165 188.215ZM149.619 191.061L149.556 190.312L153.725 183.471L153.719 183.402L149.208 183.783L149.132 182.891L154.859 182.407L154.925 183.188L150.838 189.99L150.844 190.059L155.642 189.654L155.718 190.546L149.619 191.061Z" fill="black"/>
</svg>
