<svg width="258" height="167" viewBox="0 0 258 167" fill="none" xmlns="http://www.w3.org/2000/svg">
<path d="M89.5585 80.7929C91.214 81.6166 92.6531 82.6541 93.876 83.9051C95.1455 85.097 96.2145 86.6349 97.0829 88.5189C98.0295 90.6085 98.6349 92.7654 98.8993 94.9898C99.2103 97.1549 99.0554 99.2411 98.4346 101.248C97.8605 103.196 96.7581 104.992 95.1274 106.636C93.5434 108.221 91.356 109.475 88.5654 110.397C87.0736 110.95 85.3075 111.456 83.2673 111.913C81.227 112.37 79.3859 112.696 77.7442 112.892C75.685 113.19 73.5401 113.445 71.3094 113.656C69.1381 113.914 66.9945 113.954 64.8786 113.776C63.9468 113.618 63.2313 113.247 62.7321 112.662C62.2796 112.017 61.9235 111.281 61.6639 110.452C61.3954 110.001 61.2328 109.537 61.1762 109.06L55.8135 63.9377C55.6372 62.4548 55.7932 61.2815 56.2813 60.4178C56.8161 59.4949 57.5647 58.7883 58.5268 58.298C59.4827 57.7547 60.5931 57.3811 61.8578 57.1771C63.1163 56.9201 64.434 56.7098 65.811 56.5461C66.8702 56.4202 67.9294 56.2943 68.9886 56.1685C70.0945 55.9833 71.2067 55.8511 72.3252 55.7719C74.0791 55.6172 75.8987 55.562 77.7838 55.6065C79.7155 55.5918 81.5666 55.8015 83.3368 56.2356C84.1627 56.406 85.0541 56.676 86.0111 57.0456C86.9618 57.3623 87.7397 57.8069 88.3449 58.3795C90.2221 59.714 91.6807 61.3667 92.7206 63.3378C93.8071 65.2496 94.4233 67.271 94.5692 69.402C94.7088 71.48 94.3622 73.5353 93.5296 75.5678C92.7499 77.5939 91.4262 79.3357 89.5585 80.7929ZM78.1583 103.497C79.7875 103.196 81.4338 102.812 83.097 102.346C84.7603 101.88 85.8656 101.238 86.413 100.421C87.0008 99.4921 87.361 98.4557 87.4936 97.3121C87.6729 96.1092 87.6139 94.9346 87.3165 93.7883C87.0658 92.5828 86.5863 91.4851 85.8778 90.4951C85.216 89.4459 84.3972 88.657 83.4214 88.1285C82.09 87.32 80.6141 86.8777 78.9938 86.8017C77.3672 86.6728 75.786 86.6996 74.2502 86.8821C73.5087 86.9703 72.8234 87.0786 72.1941 87.2071C71.6116 87.2763 71.0914 87.4187 70.6337 87.6342C70.2226 87.7905 69.9331 88.0666 69.7653 88.4625C69.5975 88.8584 69.5577 89.4271 69.6458 90.1685C69.9154 91.5329 70.0791 92.9099 70.1368 94.2994C70.1945 95.689 70.2989 97.0193 70.45 98.2904C70.5381 99.0318 70.6092 99.8558 70.6632 100.762C70.7639 101.61 71.1402 102.29 71.792 102.804C72.4438 103.317 73.3384 103.613 74.4757 103.693C75.6131 103.773 76.8406 103.707 78.1583 103.497ZM75.2153 65.1766C73.5672 65.3187 72.1871 65.4559 71.0749 65.5881C70.0094 65.661 69.1715 65.8411 68.5611 66.1285C67.9974 66.3566 67.6209 66.8042 67.4317 67.4712C67.2891 68.0789 67.3166 68.9887 67.5144 70.2005C67.634 71.2068 67.7271 72.2162 67.7937 73.2287C67.907 74.182 68.0203 75.1353 68.1336 76.0886C68.2595 77.1478 68.6981 77.9013 69.4496 78.3491C70.1947 78.7439 71.0767 78.9345 72.0955 78.9208C73.1673 78.9008 74.253 78.7718 75.3526 78.5337C76.5052 78.2893 77.4957 78.0373 78.3242 77.7777C80.193 77.2334 81.5739 76.4247 82.4668 75.3519C83.4064 74.2197 83.8424 72.6909 83.7747 70.7654C83.7033 68.357 82.8726 66.7908 81.2827 66.0667C79.7395 65.2834 77.717 64.9866 75.2153 65.1766ZM154.336 97.3437C154.426 97.6552 154.491 97.9698 154.528 98.2876C154.613 98.5461 154.677 98.8607 154.721 99.2314C154.797 99.867 154.681 100.472 154.373 101.045C154.245 101.329 154.065 101.619 153.832 101.915C153.592 102.158 153.296 102.382 152.945 102.585C151.709 103.483 150.337 103.915 148.829 103.879C148.062 103.756 147.359 103.49 146.72 103.083C146.601 102.989 146.516 102.946 146.463 102.952C146.403 102.905 146.341 102.832 146.275 102.733C146.216 102.686 146.157 102.639 146.098 102.593C146.032 102.493 145.943 102.423 145.831 102.383C145.535 102.149 145.295 101.936 145.11 101.743C144.92 101.497 144.73 101.251 144.539 101.005C144.402 100.753 144.241 100.531 144.057 100.338C143.92 100.085 143.756 99.8364 143.566 99.5905C143.435 99.3912 143.307 99.2185 143.182 99.0722C143.051 98.8729 142.946 98.6705 142.868 98.465C142.599 98.0135 142.417 97.6056 142.32 97.2411L140.189 93.5468C136.534 93.9811 132.883 94.4419 129.235 94.9291C125.634 95.3572 122.003 95.7618 118.343 96.1432L117.137 100.234C117.056 100.458 117.002 100.68 116.974 100.898C116.999 101.11 116.971 101.328 116.891 101.552C116.81 101.777 116.729 102.001 116.649 102.226C116.614 102.391 116.557 102.586 116.476 102.81C116.349 103.094 116.221 103.377 116.094 103.661C116.013 103.886 115.909 104.14 115.782 104.423C115.707 104.701 115.606 104.981 115.479 105.265C115.345 105.496 115.162 105.759 114.928 106.055C114.829 106.121 114.759 106.21 114.718 106.322C114.672 106.381 114.625 106.441 114.578 106.5C114.538 106.612 114.495 106.698 114.448 106.757C114.395 106.763 114.322 106.826 114.228 106.944C113.703 107.49 113.081 107.913 112.365 108.213C110.907 108.601 109.473 108.503 108.06 107.919C107.671 107.804 107.331 107.657 107.041 107.476C106.745 107.243 106.501 107.003 106.311 106.757C105.877 106.272 105.623 105.711 105.547 105.076C105.503 104.705 105.465 104.387 105.434 104.122C105.449 103.798 105.464 103.474 105.48 103.15C105.529 102.661 105.605 102.169 105.707 101.673C105.809 101.178 105.86 100.93 105.86 100.93L117.55 58.2922L117.875 56.9645C117.944 56.6341 118.041 56.3271 118.169 56.0434C118.296 55.7598 118.391 55.4263 118.453 55.0429C118.636 54.323 118.855 53.6793 119.109 53.1119C119.231 52.7753 119.381 52.462 119.562 52.172C119.742 51.882 119.922 51.592 120.103 51.3021C120.37 50.8406 120.779 50.4429 121.331 50.1088C122.041 49.7559 122.872 49.5228 123.825 49.4095C124.832 49.2899 125.721 49.3185 126.494 49.4951C127.108 49.6907 127.599 49.9814 127.967 50.3674C128.395 50.7999 128.858 51.3088 129.357 51.894C129.738 52.3858 130.102 52.9603 130.448 53.6173C130.598 53.9754 130.768 54.2774 130.959 54.5234C131.149 54.7693 131.316 55.0448 131.46 55.35L132.088 56.5644L153.445 95.2744C153.445 95.2744 153.553 95.5032 153.769 95.961C153.984 96.4188 154.173 96.8797 154.336 97.3437ZM133.195 80.1183C132.324 78.6643 131.42 77.1604 130.484 75.6068C129.6 74.0468 128.66 72.4667 127.665 70.8664C127.396 70.4149 127.128 69.9634 126.859 69.512C126.584 69.0075 126.313 68.5296 126.044 68.0781C125.942 68.5736 125.816 69.0988 125.667 69.6536C125.512 70.1554 125.357 70.6572 125.202 71.159C124.609 72.9482 124.039 74.7077 123.493 76.4376C123 78.1612 122.5 79.8319 121.994 81.4496L120.979 85.1149L135.04 83.4438L133.195 80.1183ZM179.485 63.4186L188.392 62.4406C189.274 62.1747 189.942 62.149 190.397 62.3634C190.905 62.5716 191.564 62.9229 192.375 63.4173C193.186 63.9117 193.654 64.6886 193.78 65.7478C193.843 66.2774 193.803 66.8461 193.661 67.4538C193.571 68.0553 193.383 68.5073 193.097 68.8098C192.723 69.2839 192.311 69.6551 191.859 69.9236C191.402 70.1392 190.941 70.3282 190.477 70.4908C190.059 70.5941 189.692 70.6646 189.374 70.7024C189.109 70.7339 188.95 70.7528 188.897 70.7591L180.477 71.7599L181.572 80.975C181.838 81.8564 181.895 82.7895 181.743 83.7743C181.586 84.7061 181.259 85.5774 180.765 86.388C180.271 87.1987 179.494 87.667 178.434 87.7929C177.905 87.8558 177.207 87.8582 176.341 87.8001C175.468 87.6889 174.881 87.4902 174.578 87.2039C174.104 86.8306 173.723 86.3387 173.436 85.7284C173.195 85.0588 172.984 84.4125 172.803 83.7896C172.674 83.1603 172.585 82.6339 172.534 82.2102C172.478 81.7336 172.446 81.4688 172.44 81.4158L171.35 72.9251L164.677 73.7181C164.095 73.7874 163.595 73.8736 163.177 73.977C162.807 74.021 162.433 74.0386 162.056 74.0297C161.725 73.9615 161.392 73.8669 161.055 73.7458C160.719 73.6247 160.316 73.4039 159.849 73.0836C158.642 72.4213 157.97 71.5077 157.831 70.3425C157.743 69.6011 157.87 68.8609 158.212 68.1221C158.6 67.324 159.202 66.7422 160.018 66.3767C160.529 66.1548 160.937 65.9721 161.242 65.8284C161.6 65.6784 161.909 65.5612 162.167 65.4768C162.479 65.3861 162.793 65.3218 163.111 65.284C163.475 65.187 163.949 65.1039 164.531 65.0347L170.34 64.4249L169.613 58.3079C169.415 57.0961 169.267 55.8516 169.169 54.5742C169.065 53.2439 169.33 52.0845 169.964 51.0961C170.319 50.4631 170.848 49.9437 171.552 49.5379C172.255 49.132 172.898 48.8944 173.481 48.8252C174.222 48.7371 174.969 48.9169 175.72 49.3647C176.518 49.7532 177.1 50.3554 177.466 51.1713C177.969 52.2394 178.263 53.3592 178.348 54.5306C178.487 55.6957 178.655 56.8842 178.853 58.096L179.485 63.4186Z" 
fill="#fa4753"/>
</svg>
